# File created by Blade
# Date/Time:  Tue Jan 27 18:50:05 2015
# Frame Rate: 120.000 fps
#------------------------------------------------------
:FULLY-SPECIFIED
:DEGREES
2559
root 0.135437 32.205602 -6.482381 30.073235 -44.066631 -29.664457
Spine 8.206919 9.131677 5.429219
Head -9.792091 1.161189 16.665779
LeftShoulder -10.051276 9.546827 18.636814
LeftArm 33.952951 -0.752613 -80.909857
LeftForeArm -22.734924 -0.000000 141.011631
LeftHand -18.493515 -0.000000 -7.639979
LeftHandThumb1 -26.253704 0.000000 33.147579
RightShoulder 4.771819 19.473433 -7.004843
RightArm 50.881528 -65.382719 65.111149
RightForeArm -10.285394 -0.000000 65.833961
RightHand -7.016856 -0.000000 2.580781
RightHandThumb1 -24.326973 -0.000000 -32.862282
LeftUpLeg -18.864025 17.021429 5.618408
LeftLeg 25.516726 -0.000000 -0.000000
LeftFoot -40.989342 31.258659 -32.612020
LeftToeBase 6.128574 -0.000000 -0.000000
RightUpLeg -64.169369 -45.397641 8.131599
RightLeg 96.950184 -0.000000 -0.000000
RightFoot -16.539450 -23.995544 18.316835
RightToeBase 13.069793 -0.000000 -0.000000
2560
root 0.129676 32.202851 -6.486892 30.101899 -44.130207 -29.649139
Spine 8.162995 9.104350 5.381544
Head -9.821102 1.283988 16.538998
LeftShoulder -10.057438 9.527851 18.633578
LeftArm 33.903084 -0.869968 -80.969428
LeftForeArm -23.171145 -0.000000 141.034613
LeftHand -18.593111 -0.000000 -7.952936
LeftHandThumb1 -26.253704 0.000000 33.147579
RightShoulder 4.703419 19.462829 -7.007143
RightArm 50.886165 -65.449580 65.158409
RightForeArm -10.288391 -0.000000 65.808108
RightHand -7.030256 -0.000000 2.672530
RightHandThumb1 -24.326973 -0.000000 -32.862282
LeftUpLeg -18.888469 17.123832 5.573206
LeftLeg 25.506653 -0.000000 -0.000000
LeftFoot -40.943296 31.249047 -32.520620
LeftToeBase 6.144749 -0.000000 -0.000000
RightUpLeg -64.018442 -45.343417 8.086921
RightLeg 96.999724 -0.000000 -0.000000
RightFoot -16.267319 -23.763539 18.333473
RightToeBase 12.843890 -0.000000 -0.000000
2561
root 0.125470 32.199650 -6.491204 30.117181 -44.169676 -29.605126
Spine 8.114929 9.057042 5.328661
Head -9.870461 1.400643 16.431005
LeftShoulder -10.063357 9.510668 18.603484
LeftArm 33.927164 -0.849796 -81.030525
LeftForeArm -23.134603 0.000000 141.081202
LeftHand -18.770799 -0.000000 -8.029789
LeftHandThumb1 -26.253704 0.000000 33.147579
RightShoulder 4.646254 19.464274 -7.013269
RightArm 50.878484 -65.520173 65.193246
RightForeArm -10.234278 0.000000 65.787560
RightHand -7.034229 -0.000000 2.659364
RightHandThumb1 -24.326973 -0.000000 -32.862282
LeftUpLeg -18.927188 17.228882 5.508319
LeftLeg 25.482683 -0.000000 -0.000000
LeftFoot -40.925286 31.207330 -32.441678
LeftToeBase 6.137325 -0.000000 -0.000000
RightUpLeg -63.903186 -45.329978 8.063126
RightLeg 97.068364 -0.000000 -0.000000
RightFoot -15.707556 -23.616187 18.073221
RightToeBase 12.454862 -0.000000 -0.000000
2562
root 0.124018 32.194556 -6.493836 30.077164 -44.167432 -29.496524
Spine 8.083682 8.938215 5.286229
Head -9.930768 1.522568 16.261333
LeftShoulder -10.105285 9.504357 18.558849
LeftArm 33.956659 -0.793911 -81.005264
LeftForeArm -23.121269 -0.000000 141.078741
LeftHand -18.788310 0.000000 -7.919647
LeftHandThumb1 -26.253704 0.000000 33.147579
RightShoulder 4.634072 19.462848 -7.063555
RightArm 50.762966 -65.549822 65.360396
RightForeArm -10.195645 -0.000000 65.765887
RightHand -7.037500 0.000000 2.613585
RightHandThumb1 -24.326973 -0.000000 -32.862282
LeftUpLeg -18.975050 17.258000 5.416862
LeftLeg 25.478815 -0.000000 -0.000000
LeftFoot -40.896915 31.175489 -32.379858
LeftToeBase 6.214218 -0.000000 -0.000000
RightUpLeg -63.789816 -45.384255 7.989599
RightLeg 97.223469 -0.000000 -0.000000
RightFoot -15.371962 -23.092453 18.446563
RightToeBase 12.638792 -0.000000 -0.000000
2563
root 0.122215 32.190660 -6.501834 30.081912 -44.148833 -29.416621
Spine 8.034844 8.843456 5.263270
Head -10.016004 1.633928 16.100380
LeftShoulder -10.158120 9.514842 18.534901
LeftArm 34.020330 -0.655546 -80.876002
LeftForeArm -22.724201 -0.000000 141.020283
LeftHand -18.584672 -0.000000 -7.586546
LeftHandThumb1 -26.253704 0.000000 33.147579
RightShoulder 4.626839 19.488153 -7.115014
RightArm 50.586381 -65.570988 65.565180
RightForeArm -10.174443 -0.000000 65.759382
RightHand -6.983818 -0.000000 2.531340
RightHandThumb1 -24.326973 -0.000000 -32.862282
LeftUpLeg -19.062137 17.316819 5.345903
LeftLeg 25.468169 -0.000000 -0.000000
LeftFoot -40.873284 31.135423 -32.308264
LeftToeBase 6.218163 -0.000000 -0.000000
RightUpLeg -63.713760 -45.417433 7.966640
RightLeg 97.425673 -0.000000 -0.000000
RightFoot -15.069843 -22.386277 19.148817
RightToeBase 13.226749 -0.000000 -0.000000
2564
root 0.118898 32.186779 -6.510970 30.047708 -44.129526 -29.330828
Spine 8.032088 8.750874 5.231216
Head -10.108489 1.757736 15.968818
LeftShoulder -10.191529 9.504482 18.524085
LeftArm 34.084879 -0.596395 -80.828190
LeftForeArm -22.707851 -0.000000 140.997751
LeftHand -18.634155 -0.000000 -7.690309
LeftHandThumb1 -26.253704 0.000000 33.147579
RightShoulder 4.635790 19.514881 -7.155019
RightArm 50.453448 -65.569826 65.718598
RightForeArm -10.170294 0.000000 65.768125
RightHand -6.982141 -0.000000 2.461303
RightHandThumb1 -24.326973 -0.000000 -32.862282
LeftUpLeg -19.117062 17.393996 5.282781
LeftLeg 25.474508 -0.000000 -0.000000
LeftFoot -40.811050 31.083955 -32.183684
LeftToeBase 6.226078 -0.000000 -0.000000
RightUpLeg -63.622720 -45.460524 7.925387
RightLeg 97.732286 -0.000000 -0.000000
RightFoot -14.492177 -21.584901 19.655646
RightToeBase 13.739682 -0.000000 -0.000000
2565
root 0.114726 32.183504 -6.519671 30.029799 -44.096240 -29.248410
Spine 8.009353 8.670415 5.211366
Head -10.207391 1.859794 15.849170
LeftShoulder -10.192551 9.440507 18.516642
LeftArm 34.117793 -0.602890 -80.907261
LeftForeArm -22.996575 -0.000000 140.964175
LeftHand -18.732485 -0.000000 -7.896036
LeftHandThumb1 -26.253704 0.000000 33.147579
RightShoulder 4.642542 19.510507 -7.196513
RightArm 50.372601 -65.554181 65.802816
RightForeArm -10.245734 0.000000 65.792149
RightHand -7.004880 -0.000000 2.328051
RightHandThumb1 -24.326973 -0.000000 -32.862282
LeftUpLeg -19.188097 17.447144 5.229117
LeftLeg 25.486349 -0.000000 -0.000000
LeftFoot -40.763579 31.023964 -32.097035
LeftToeBase 6.263357 -0.000000 -0.000000
RightUpLeg -63.562603 -45.519300 7.918307
RightLeg 98.100119 -0.000000 -0.000000
RightFoot -13.694448 -20.710308 20.088420
RightToeBase 14.709496 -0.000000 -0.000000
2566
root 0.108631 32.180260 -6.528883 30.008128 -44.043009 -29.164361
Spine 7.982068 8.587368 5.196008
Head -10.284714 1.969474 15.743809
LeftShoulder -10.211569 9.429385 18.532192
LeftArm 34.188107 -0.488222 -80.880390
LeftForeArm -22.972823 0.000000 140.895165
LeftHand -18.655100 -0.000000 -7.796487
LeftHandThumb1 -26.253704 0.000000 33.147579
RightShoulder 4.646847 19.512916 -7.223584
RightArm 50.328291 -65.530054 65.818409
RightForeArm -10.315159 -0.000000 65.829003
RightHand -7.086772 -0.000000 2.081982
RightHandThumb1 -24.326973 -0.000000 -32.862282
LeftUpLeg -19.260721 17.478733 5.185899
LeftLeg 25.507310 -0.000000 -0.000000
LeftFoot -40.717292 30.969744 -31.992820
LeftToeBase 6.294050 -0.000000 -0.000000
RightUpLeg -63.516636 -45.604363 7.926300
RightLeg 98.599433 -0.000000 -0.000000
RightFoot -12.680020 -19.728368 20.443396
RightToeBase 15.056757 -0.000000 -0.000000
2567
root 0.103944 32.177780 -6.540776 29.993715 -44.001947 -29.111449
Spine 7.993470 8.545414 5.212887
Head -10.393976 2.033172 15.607601
LeftShoulder -10.213833 9.370159 18.521152
LeftArm 34.256110 -0.422313 -80.797916
LeftForeArm -22.980699 -0.000000 140.823047
LeftHand -18.718755 -0.000000 -7.821429
LeftHandThumb1 -26.253704 0.000000 33.147579
RightShoulder 4.666268 19.566509 -7.241424
RightArm 50.099613 -65.471082 66.032570
RightForeArm -10.245974 -0.000000 65.848371
RightHand -7.161437 -0.000000 2.094687
RightHandThumb1 -24.326973 -0.000000 -32.862282
LeftUpLeg -19.324519 17.511284 5.165030
LeftLeg 25.546614 -0.000000 -0.000000
LeftFoot -40.712575 30.770301 -32.072465
LeftToeBase 6.155304 -0.000000 -0.000000
RightUpLeg -63.480455 -45.663993 7.956619
RightLeg 99.220598 -0.000000 -0.000000
RightFoot -11.514264 -18.681694 20.804140
RightToeBase 14.782478 -0.000000 -0.000000
2568
root 0.098015 32.174915 -6.552236 29.951832 -43.959748 -29.059148
Spine 8.030551 8.520716 5.233486
Head -10.475958 2.094941 15.497647
LeftShoulder -10.163065 9.296243 18.541854
LeftArm 34.312228 -0.335256 -80.831175
LeftForeArm -22.803765 -0.000000 140.768857
LeftHand -18.805165 -0.000000 -7.809591
LeftHandThumb1 -26.253704 0.000000 33.147579
RightShoulder 4.649829 19.550083 -7.296500
RightArm 50.212682 -65.350563 65.896255
RightForeArm -10.363368 -0.000000 65.849362
RightHand -6.966478 -0.000000 2.551569
RightHandThumb1 -24.326973 -0.000000 -32.862282
LeftUpLeg -19.351940 17.513230 5.163871
LeftLeg 25.572675 -0.000000 -0.000000
LeftFoot -40.678925 30.860700 -31.900375
LeftToeBase 6.327970 -0.000000 -0.000000
RightUpLeg -63.442305 -45.744564 7.986356
RightLeg 100.005575 -0.000000 -0.000000
RightFoot -10.443050 -17.406297 21.360925
RightToeBase 15.200899 -0.000000 -0.000000
2569
root 0.091713 32.172169 -6.564906 29.902686 -43.918304 -29.004877
Spine 8.082935 8.513266 5.259468
Head -10.558441 2.143408 15.381528
LeftShoulder -10.111505 9.230802 18.571460
LeftArm 34.380600 -0.281787 -80.816131
LeftForeArm -22.709554 -0.000000 140.696659
LeftHand -18.886806 -0.000000 -7.801581
LeftHandThumb1 -26.253704 0.000000 33.147579
RightShoulder 4.641604 19.557077 -7.341240
RightArm 50.309130 -65.282372 65.786925
RightForeArm -10.118494 0.000000 65.812306
RightHand -6.865863 -0.000000 2.599883
RightHandThumb1 -24.326973 -0.000000 -32.862282
LeftUpLeg -19.383934 17.509129 5.164379
LeftLeg 25.623426 -0.000000 -0.000000
LeftFoot -40.684999 30.818864 -31.881642
LeftToeBase 6.442027 -0.000000 -0.000000
RightUpLeg -63.436845 -45.828124 8.034548
RightLeg 100.982789 -0.000000 -0.000000
RightFoot -9.167459 -16.003472 21.754188
RightToeBase 15.483388 -0.000000 -0.000000
2570
root 0.084327 32.168402 -6.576663 29.833191 -43.891802 -28.948917
Spine 8.152016 8.495623 5.275793
Head -10.622808 2.231415 15.271466
LeftShoulder -10.090714 9.160778 18.610924
LeftArm 34.399044 -0.191628 -80.785695
LeftForeArm -22.627079 -0.000000 140.622536
LeftHand -18.841822 -0.000000 -7.637633
LeftHandThumb1 -26.253704 0.000000 33.147579
RightShoulder 4.672300 19.565329 -7.367844
RightArm 50.231544 -65.180089 65.845402
RightForeArm -10.132400 -0.000000 65.845965
RightHand -6.958037 0.000000 2.691892
RightHandThumb1 -24.326973 -0.000000 -32.862282
LeftUpLeg -19.391603 17.475457 5.166606
LeftLeg 25.678029 -0.000000 -0.000000
LeftFoot -40.712030 30.805294 -31.882205
LeftToeBase 6.467190 -0.000000 -0.000000
RightUpLeg -63.439651 -45.917228 8.079268
RightLeg 102.169966 -0.000000 -0.000000
RightFoot -7.785799 -14.443013 22.152055
RightToeBase 15.953012 -0.000000 -0.000000
